<svg width="48" height="52" viewBox="0 0 48 52" fill="none" xmlns="http://www.w3.org/2000/svg">
<path d="M47.1992 33.9655L33.6061 26L47.1992 18.0345C47.9652 17.5855 48.2272 16.5923 47.7852 15.8143L44.5832 10.1847C44.1412 9.40773 43.1622 9.14062 42.3962 9.58953L28.803 17.5551V1.625C28.803 0.727188 28.086 0 27.202 0H20.798C19.914 0 19.197 0.727188 19.197 1.625V17.5561L5.60383 9.59055C4.83782 9.14164 3.85881 9.40875 3.4168 10.1857L0.214774 15.8143C-0.227231 16.5913 0.0347719 17.5855 0.800779 18.0345L14.3939 26L0.800779 33.9655C0.0347719 34.4145 -0.227231 35.4088 0.214774 36.1857L3.4168 41.8153C3.85881 42.5923 4.83782 42.8584 5.60383 42.4105L19.197 34.4449V50.375C19.197 51.2728 19.914 52 20.798 52H27.202C28.086 52 28.803 51.2728 28.803 50.375V34.4439L42.3962 42.4095C43.1622 42.8584 44.1412 42.5923 44.5832 41.8143L47.7852 36.1847C48.2272 35.4077 47.9652 34.4145 47.1992 33.9655Z" fill="#CC36A2"/>
</svg>
